<?xml version="1.0" standalone="no"?>
<!DOCTYPE svg PUBLIC "-//W3C//DTD SVG 20010904//EN"
 "http://www.w3.org/TR/2001/REC-SVG-20010904/DTD/svg10.dtd">
<svg version="1.0" xmlns="http://www.w3.org/2000/svg"
 width="1207.000000pt" height="1280.000000pt" viewBox="0 0 1207.000000 1280.000000"
 preserveAspectRatio="xMidYMid meet">
<g transform="translate(0.000000,1280.000000) scale(0.100000,-0.100000)"
fill="#000000" stroke="none">
<path d="M2544 12736 c-16 -41 7 -278 68 -711 18 -125 21 -195 21 -425 -1
-285 -9 -389 -44 -600 -51 -303 -101 -398 -273 -518 -99 -69 -147 -119 -196
-202 -164 -276 -135 -617 73 -868 44 -53 154 -152 169 -152 5 0 -9 24 -31 53
-55 72 -107 186 -127 276 -30 132 -2 480 47 590 40 90 98 142 249 222 161 85
289 256 336 449 23 97 14 280 -26 520 -47 279 -52 442 -14 457 20 7 86 -39
160 -113 74 -74 148 -182 278 -410 54 -94 120 -199 147 -235 90 -116 128 -177
184 -286 255 -509 309 -1128 164 -1877 -15 -83 -27 -152 -24 -154 6 -6 42 116
90 303 48 187 89 420 105 590 13 144 13 480 -1 603 -37 348 -149 668 -325 933
-41 63 -150 238 -240 389 -91 151 -198 316 -238 367 -96 120 -179 244 -371
548 -86 138 -161 254 -165 259 -6 6 -12 2 -16 -8z"/>
<path d="M4152 12698 c-36 -96 -61 -191 -113 -428 -66 -306 -171 -615 -283
-838 l-34 -68 74 -95 c41 -51 77 -93 82 -93 14 3 53 150 92 345 56 276 95 389
134 389 19 0 70 -73 102 -146 37 -83 60 -177 98 -400 20 -110 47 -238 61 -283
59 -185 66 -279 40 -506 -45 -390 -192 -955 -345 -1329 -36 -91 -39 -102 -28
-133 7 -18 15 -33 18 -33 10 0 85 147 154 302 169 382 295 777 357 1123 17 94
22 162 23 315 1 192 0 197 -36 345 -20 83 -46 204 -58 270 -44 253 -73 384
-112 505 -45 144 -62 210 -123 497 -66 311 -66 313 -75 313 -5 0 -17 -24 -28
-52z"/>
<path d="M8332 11764 c-28 -19 -28 -27 7 -175 138 -580 109 -881 -114 -1179
-44 -59 -55 -82 -61 -126 -8 -67 8 -160 39 -227 27 -60 97 -151 127 -167 18
-10 17 -5 -9 42 -53 93 -65 162 -52 304 13 144 18 161 76 235 64 81 120 190
151 294 25 81 28 105 28 250 1 184 -13 263 -76 445 -58 168 -58 164 -19 157
49 -10 190 -79 262 -128 88 -59 196 -171 263 -272 134 -202 224 -457 273 -777
22 -145 25 -554 5 -673 -8 -43 -11 -81 -9 -84 6 -6 42 151 63 277 24 148 29
402 10 547 -62 472 -289 878 -633 1137 -161 121 -272 161 -331 120z"/>
<path d="M7877 9800 c-69 -12 -133 -46 -157 -85 -11 -18 -30 -75 -41 -127 -29
-136 -62 -184 -298 -443 -169 -186 -238 -272 -305 -378 -130 -209 -151 -368
-55 -426 49 -30 94 -33 214 -12 124 21 84 29 -51 10 -71 -10 -85 -9 -117 5
-50 24 -68 66 -56 135 28 175 136 360 306 521 43 41 165 146 270 233 106 87
198 168 205 180 6 12 14 57 18 100 9 94 26 121 99 158 125 63 346 63 511 0 66
-25 195 -104 328 -202 l97 -71 -50 52 c-121 127 -338 262 -503 314 -129 40
-299 55 -415 36z"/>
<path d="M9500 9693 c-25 -9 -90 -55 -90 -64 0 -4 16 -5 35 -2 41 7 81 -16 96
-54 16 -44 -15 -123 -96 -244 -41 -60 -70 -107 -65 -104 5 3 46 49 90 102 135
162 179 279 128 337 -23 26 -70 40 -98 29z"/>
<path d="M10545 9609 c-195 -25 -405 -84 -581 -164 -90 -41 -266 -136 -261
-142 2 -2 37 12 78 31 112 50 322 121 429 144 147 31 333 45 595 45 415 0 668
-59 886 -205 82 -55 156 -124 145 -135 -3 -3 -67 -7 -143 -9 -469 -10 -797
-172 -985 -487 -52 -87 -81 -108 -198 -147 -117 -39 -221 -48 -303 -27 -77 20
-62 1 33 -42 83 -39 185 -50 282 -32 111 21 134 36 196 130 89 135 199 233
341 305 98 50 258 95 534 150 287 58 443 98 466 121 11 11 8 20 -18 58 -38 55
-82 90 -189 151 -225 127 -494 216 -760 251 -124 16 -430 18 -547 4z"/>
<path d="M1495 9185 c-181 -39 -244 -108 -290 -316 -46 -208 -193 -470 -355
-629 -47 -47 -94 -98 -104 -113 -10 -16 -73 -135 -141 -265 -140 -271 -221
-413 -419 -737 -193 -318 -202 -337 -170 -383 28 -41 40 -38 501 127 388 138
581 120 808 -73 50 -43 98 -82 107 -87 20 -11 31 5 43 58 9 44 66 93 108 93
36 0 64 -16 119 -68 63 -60 59 -62 403 201 239 183 580 457 710 570 127 110
228 212 180 182 -16 -11 -97 -62 -180 -115 -446 -286 -804 -474 -972 -510 -38
-8 -77 -9 -140 -1 -100 12 -180 3 -240 -27 -45 -24 -71 -51 -108 -114 -32 -57
-58 -62 -135 -23 -120 61 -264 71 -421 31 -52 -13 -173 -53 -270 -90 -264 -98
-394 -127 -427 -94 -16 16 -15 71 2 111 17 42 367 579 507 777 243 347 374
495 597 673 193 155 222 202 222 364 0 100 13 135 68 185 87 79 209 117 403
125 213 10 424 -29 584 -107 141 -68 426 -268 634 -444 123 -104 99 -62 -53
88 -354 354 -735 563 -1119 615 -107 15 -378 12 -452 -4z"/>
<path d="M4207 8914 c-104 -54 -265 -238 -403 -461 -70 -114 -148 -253 -140
-253 2 0 39 51 82 112 228 332 409 495 526 471 40 -8 85 -56 98 -104 9 -32 8
-51 -4 -92 -8 -28 -14 -53 -12 -55 5 -5 63 90 85 138 33 76 36 128 9 180 -46
90 -142 116 -241 64z"/>
<path d="M8565 8798 c-274 -179 -433 -246 -680 -287 l-110 -19 -40 -46 c-36
-42 -47 -48 -110 -61 -38 -8 -83 -15 -99 -15 -58 0 -18 -10 83 -20 56 -6 130
-19 164 -30 33 -11 62 -18 62 -17 1 1 7 16 14 34 8 18 25 36 42 43 25 11 34 9
73 -14 25 -14 53 -26 63 -26 27 0 136 76 312 218 219 176 420 353 400 352 -2
0 -80 -51 -174 -112z"/>
<path d="M8804 8818 c-70 -74 -143 -180 -165 -238 -32 -84 -23 -127 33 -156
42 -22 86 -11 134 31 l39 34 -47 -6 c-41 -5 -50 -2 -72 20 -55 55 -18 164 111
334 37 49 23 40 -33 -19z"/>
<path d="M9570 8857 c0 -2 48 -42 108 -88 162 -126 260 -229 309 -324 54 -105
83 -202 90 -300 10 -142 -22 -205 -117 -230 -32 -8 -61 -23 -71 -36 -15 -20
-76 -130 -244 -439 -180 -331 -332 -484 -533 -535 -85 -22 -115 -3 -152 96
l-20 54 5 -51 c13 -123 56 -204 109 -204 76 0 236 97 352 214 94 95 131 143
284 366 210 306 274 376 401 440 101 51 129 113 111 242 -38 270 -210 521
-482 707 -81 56 -150 96 -150 88z"/>
<path d="M9082 8593 c-35 -69 -122 -265 -194 -437 -39 -93 -81 -190 -94 -214
-31 -59 -30 -101 6 -205 36 -105 37 -112 5 -133 -14 -9 -25 -21 -25 -27 0 -6
21 -51 46 -100 26 -50 55 -113 64 -141 l19 -51 0 102 c1 88 5 113 32 185 33
89 34 112 9 272 -17 115 19 312 119 645 23 74 39 136 37 139 -3 2 -13 -13 -24
-35z"/>
<path d="M7378 8353 c12 -2 30 -2 40 0 9 3 -1 5 -23 4 -22 0 -30 -2 -17 -4z"/>
<path d="M3495 7518 c-149 -225 -331 -427 -434 -482 -89 -48 -158 -35 -201 37
-24 39 -26 98 -5 158 l15 44 -24 -30 c-14 -16 -40 -59 -58 -94 -28 -56 -33
-75 -33 -136 0 -59 4 -75 23 -100 57 -72 133 -85 225 -39 104 53 268 239 402
454 62 101 150 260 142 260 -2 0 -26 -33 -52 -72z"/>
<path d="M8263 5057 c-23 -46 -74 -136 -114 -198 -97 -153 -227 -373 -247
-418 -19 -45 -22 -329 -3 -471 19 -153 83 -404 168 -665 105 -323 326 -832
357 -822 6 2 14 16 19 31 7 22 1 47 -33 134 -60 153 -142 400 -195 592 -49
178 -138 602 -155 740 -37 309 28 524 193 635 94 63 143 42 215 -93 47 -88 78
-122 112 -122 56 0 120 79 134 166 12 69 -14 114 -113 198 -147 126 -228 222
-275 328 l-22 50 -41 -85z"/>
<path d="M9587 4896 c-45 -40 -133 -71 -265 -92 -172 -27 -173 -28 -261 -119
-250 -260 -411 -593 -483 -995 -20 -117 -17 -590 6 -755 33 -245 112 -592 166
-735 23 -63 23 -58 -15 145 -87 472 -94 904 -19 1275 55 276 185 542 390 797
106 133 186 174 285 149 114 -30 152 -84 175 -247 21 -153 58 -241 138 -338
60 -72 124 -117 260 -185 252 -125 282 -179 316 -556 19 -216 -17 -356 -136
-528 -60 -87 -26 -67 93 54 80 81 99 108 142 196 65 133 86 236 78 368 -8 118
-27 192 -78 297 -45 95 -124 185 -213 246 -101 67 -176 137 -256 238 -160 201
-248 438 -267 720 -3 55 -9 99 -12 99 -3 -1 -23 -16 -44 -34z"/>
<path d="M4517 4420 c-103 -38 -221 -103 -397 -218 -355 -231 -588 -565 -725
-1042 -38 -132 -81 -342 -90 -440 -5 -59 -2 -52 29 67 191 729 516 1149 1068
1383 104 44 165 53 193 30 26 -22 15 -99 -29 -205 -81 -194 -80 -189 -80 -335
-1 -163 14 -208 105 -330 74 -97 89 -133 89 -208 0 -61 -46 -229 -89 -326 -32
-73 -93 -147 -161 -197 -33 -24 -56 -45 -52 -47 17 -5 120 39 178 77 144 93
229 241 241 421 7 107 -13 190 -67 280 -93 155 -97 214 -27 510 67 284 79 361
75 463 -3 86 -4 90 -36 118 -28 25 -40 29 -90 29 -37 -1 -84 -11 -135 -30z"/>
<path d="M760 3444 c-227 -33 -282 -97 -210 -240 36 -71 99 -149 289 -362 79
-88 157 -180 172 -204 41 -62 63 -158 55 -239 -13 -140 42 -278 153 -388 118
-118 250 -168 416 -158 50 3 101 10 114 15 21 7 14 10 -41 16 -76 7 -163 35
-225 72 -68 40 -251 221 -279 276 -27 54 -31 120 -13 242 20 134 -20 273 -114
395 -23 30 -94 96 -158 147 -158 125 -185 168 -140 213 29 29 81 40 242 51
235 15 420 -7 629 -76 298 -99 593 -300 884 -605 93 -96 111 -112 81 -69 -161
231 -434 499 -662 647 -252 164 -473 241 -764 263 -126 9 -374 12 -429 4z"/>
<path d="M2904 2903 c-12 -2 -34 -18 -50 -34 -27 -28 -29 -37 -32 -119 -5
-105 26 -242 90 -408 42 -108 58 -132 32 -47 -59 191 -79 370 -49 441 28 68
112 78 173 21 l24 -22 -7 25 c-12 42 -55 109 -78 125 -26 17 -72 25 -103 18z"/>
<path d="M10585 2593 c-309 -28 -662 -184 -960 -424 -100 -80 -249 -223 -318
-303 -61 -71 -51 -65 111 68 148 122 334 255 467 335 189 114 375 164 620 164
221 1 370 -36 460 -115 l45 -40 0 -112 c0 -116 13 -189 51 -276 16 -37 38 -62
100 -110 307 -242 406 -598 264 -948 -27 -67 -31 -82 -17 -77 90 39 133 43
197 20 22 -8 41 -15 43 -15 1 0 -7 18 -18 40 -55 107 -62 231 -29 485 11 88
18 183 16 212 -7 68 -40 131 -130 251 -128 169 -170 266 -218 506 -12 60 -28
125 -36 145 -58 139 -213 203 -481 199 -70 -1 -145 -3 -167 -5z"/>
<path d="M4155 2403 c-86 -8 -262 -46 -359 -78 -113 -36 -209 -75 -203 -82 3
-2 65 12 138 31 151 39 256 60 377 76 277 37 669 -138 724 -322 10 -34 8 -46
-18 -110 -48 -122 -44 -148 58 -345 103 -202 118 -247 118 -368 0 -167 -73
-368 -167 -463 l-45 -44 -58 6 c-47 6 -85 1 -190 -24 -123 -29 -134 -30 -156
-15 -17 11 -24 25 -24 46 0 35 -24 95 -48 122 -23 26 -94 61 -163 81 -103 29
-259 199 -505 551 -65 94 -127 182 -137 195 l-18 25 7 -25 c10 -38 200 -411
322 -630 156 -281 192 -341 209 -347 9 -3 36 1 62 11 63 22 83 20 112 -10 19
-21 24 -35 22 -75 -1 -60 -2 -60 129 -19 150 47 184 52 246 33 51 -16 55 -16
125 6 207 66 321 191 372 408 26 109 17 279 -18 354 -68 142 -95 384 -64 565
23 135 1 200 -91 267 -185 135 -478 205 -757 180z"/>
<path d="M8095 2321 c-67 -41 -80 -66 -80 -149 0 -68 4 -84 33 -137 18 -33 43
-73 57 -90 l24 -30 -14 40 c-42 120 13 225 118 225 108 0 276 -159 487 -460
94 -135 103 -143 50 -45 -115 213 -246 401 -365 521 -133 133 -232 174 -310
125z"/>
<path d="M2510 1979 c-369 -47 -694 -195 -886 -401 -137 -149 -204 -266 -204
-361 0 -69 13 -97 86 -185 103 -125 182 -315 208 -500 17 -121 50 -198 125
-292 90 -112 177 -173 303 -215 78 -26 128 -31 174 -16 16 6 56 15 89 22 46 9
67 19 91 44 50 53 84 66 287 110 42 9 77 21 77 27 0 5 -9 21 -20 35 -25 33
-27 94 -2 116 10 9 40 21 67 27 86 18 80 -4 83 307 4 301 -12 805 -26 829 -6
10 -13 -37 -21 -127 -28 -342 -81 -647 -131 -765 -11 -24 -44 -71 -75 -104
-87 -95 -103 -155 -68 -254 18 -48 18 -48 -6 -67 -12 -10 -42 -24 -64 -29
-182 -47 -201 -54 -235 -84 -48 -42 -96 -42 -182 1 -126 62 -257 191 -321 316
-45 87 -57 155 -64 357 -8 224 -14 242 -109 325 -50 44 -69 69 -77 99 -45 165
189 494 436 613 84 40 266 100 429 142 65 16 121 32 124 36 6 6 0 5 -88 -6z"/>
<path d="M3325 1725 c82 -278 95 -449 40 -509 -34 -37 -101 -37 -144 0 -40 33
-40 15 -1 -53 36 -63 67 -85 118 -87 139 -3 161 183 57 482 -30 87 -84 216
-70 167z"/>
<path d="M9500 1105 c118 -122 510 -445 895 -735 105 -79 209 -161 232 -182
64 -57 88 -52 150 28 35 46 75 67 105 55 29 -11 41 -25 58 -71 25 -65 31 -66
65 -3 17 32 53 95 78 139 26 45 47 85 47 89 0 4 -15 -4 -34 -19 -42 -32 -52
-32 -67 -3 -6 12 -28 39 -48 60 -53 56 -107 69 -255 61 l-121 -7 -95 37 c-173
67 -533 266 -825 454 -55 36 -131 85 -170 110 l-70 44 55 -57z"/>
<path d="M8965 903 c114 -211 234 -383 354 -506 153 -158 261 -193 350 -111
43 38 65 100 55 156 -9 44 -56 144 -90 188 -22 30 -25 31 -19 10 4 -14 10 -52
12 -85 5 -73 -16 -113 -71 -139 -51 -24 -102 -14 -175 35 -103 68 -267 258
-406 467 -26 39 -50 72 -52 72 -3 0 16 -39 42 -87z"/>
</g>
</svg>
